ISO-10303-21;
HEADER;
FILE_DESCRIPTION(('ViewDefinition [ReferenceView_V1.2]','RevitIdentifiers [ContentGUID: c59852d1-6da9-45d9-94b6-4fa8e4fbb84c, VersionGUID: c92adca7-eddb-41c7-9081-b5b80350fc7a, NumberOfSaves: 0]','CoordinateReference [CoordinateBase: Shared Coordinates]','ExchangeRequirement [Architecture]'),'2;1');
FILE_NAME('Project4.ifc','2026-09-27T23:59:17+08:00',(''),(''),'ODA SDAI 25.12','Autodesk - Revit 26.5.0.55 (ENG) - 26.5.0.55','');
FILE_SCHEMA(('IFC4'));
ENDSEC;

DATA;
#1=IFCORGANIZATION($,'Autodesk Revit 2026 (ENG)',$,$,$);
#2=IFCAPPLICATION(#1,'2026','Autodesk Revit 2026 (ENG)','Revit');
#3=IFCPERSON($,'','yurhino02',$,$,$,$,$);
#4=IFCORGANIZATION($,'','',$,$);
#5=IFCPERSONANDORGANIZATION(#3,#4,$);
#6=IFCOWNERHISTORY(#5,#2,$,.NOCHANGE.,$,$,$,1790524756);
#7=IFCSIUNIT(*,.LENGTHUNIT.,.MILLI.,.METRE.);
#8=IFCSIUNIT(*,.AREAUNIT.,$,.SQUARE_METRE.);
#9=IFCSIUNIT(*,.VOLUMEUNIT.,$,.CUBIC_METRE.);
#10=IFCCARTESIANPOINT((0.,0.,0.));
#11=IFCAXIS2PLACEMENT3D(#10,$,$);
#12=IFCDIRECTION((0.,1.));
#13=IFCGEOMETRICREPRESENTATIONCONTEXT($,'Model',3,0.01,#11,#12);
#14=IFCGEOMETRICREPRESENTATIONSUBCONTEXT('Axis','Model',*,*,*,*,#13,$,.GRAPH_VIEW.,$);
#15=IFCGEOMETRICREPRESENTATIONSUBCONTEXT('Body','Model',*,*,*,*,#13,$,.MODEL_VIEW.,$);
#16=IFCGEOMETRICREPRESENTATIONSUBCONTEXT('Box','Model',*,*,*,*,#13,$,.MODEL_VIEW.,$);
#17=IFCGEOMETRICREPRESENTATIONSUBCONTEXT('FootPrint','Model',*,*,*,*,#13,$,.MODEL_VIEW.,$);
#18=IFCPROJECT('35c5BHRQb5sPIsJwWR14Uy',#6,'Project Number',$,$,'Project Name','Project Status',(#13),#303);
#19=IFCPOSTALADDRESS($,$,$,$,('Enter address here'),$,'London','London','','United Kingdom');
#20=IFCAXIS2PLACEMENT3D(#10,$,$);
#21=IFCLOCALPLACEMENT(#43,#20);
#22=IFCBUILDING('35c5BHRQb5sPIsJwWR14Uz',#6,'',$,$,#21,$,'',.ELEMENT.,$,$,#19);
#23=IFCAXIS2PLACEMENT3D(#10,$,$);
#24=IFCLOCALPLACEMENT(#21,#23);
#25=IFCBUILDINGSTOREY('3Zu5Bv0LOHrPC10026FoQQ',#6,'Level 0',$,$,#24,$,'Level 0',.ELEMENT.,0.);
#26=IFCCARTESIANPOINT((0.,0.,4000.));
#27=IFCAXIS2PLACEMENT3D(#26,$,$);
#28=IFCLOCALPLACEMENT(#21,#27);
#29=IFCBUILDINGSTOREY('15Z0v90RiHrPC20026FoKR',#6,'Level 1',$,$,#28,$,'Level 1',.ELEMENT.,3999.9999999999995);
#30=IFCCARTESIANPOINT((0.,0.,7550.));
#31=IFCAXIS2PLACEMENT3D(#30,$,$);
#32=IFCLOCALPLACEMENT(#21,#31);
#33=IFCBUILDINGSTOREY('39AjodxTj1nv21jRW3L2fw',#6,'Level 2',$,$,#32,$,'Level 2',.ELEMENT.,7550.);
#34=IFCCARTESIANPOINT((0.,0.,10600.));
#35=IFCAXIS2PLACEMENT3D(#34,$,$);
#36=IFCLOCALPLACEMENT(#21,#35);
#37=IFCBUILDINGSTOREY('39AjodxTj1nv21jRW3L2If',#6,'Level 3',$,$,#36,$,'Level 3',.ELEMENT.,10600.);
#38=IFCCARTESIANPOINT((0.,0.,13650.));
#39=IFCAXIS2PLACEMENT3D(#38,$,$);
#40=IFCLOCALPLACEMENT(#21,#39);
#41=IFCBUILDINGSTOREY('39AjodxTj1nv21jRW3L2Rp',#6,'Level 4',$,$,#40,$,'Level 4',.ELEMENT.,13650.);
#42=IFCAXIS2PLACEMENT3D(#10,$,$);
#43=IFCLOCALPLACEMENT($,#42);
#44=IFCSITE('35c5BHRQb5sPIsJwWR14U_',#6,'Default',$,$,#43,$,$,.ELEMENT.,(51,30,23,112487),(0,-7,-37,-956022),0.,$,$);
#45=IFCPROPERTYSINGLEVALUE('Reference',$,IFCIDENTIFIER('Project Information'),$);
#46=IFCPROPERTYSET('17dZmR$fHl$CnXliEywSiq',#6,'Pset_SiteCommon',$,(#45));
#47=IFCRELDEFINESBYPROPERTIES('0D5FwkmbCkBbxoV5l5LgZq',#6,$,$,(#44),#46);
#48=IFCCARTESIANPOINT((3192.8916811291688,801.80909078791717,0.));
#49=IFCDIRECTION((0.,0.,1.));
#50=IFCDIRECTION((0.,1.,0.));
#51=IFCAXIS2PLACEMENT3D(#48,#49,#50);
#52=IFCLOCALPLACEMENT(#40,#51);
#53=IFCCARTESIANPOINTLIST3D(((0.,1.8143727949920557E-013,-2.1657342585967854E-012),(1145.0000000000002,3.6258948538180238E-013,-2.1657342585967854E-012)));
#54=IFCINDEXEDPOLYCURVE(#53,$,.F.);
#55=IFCSHAPEREPRESENTATION(#14,'Axis','Curve3D',(#54));
#56=IFCPRODUCTDEFINITIONSHAPE($,$,(#55,#102));
#57=IFCCARTESIANPOINTLIST2D(((337.00000000000023,-4.9999999999858904),(349.49999999999977,-4.9999999999853486),(349.49999999999926,7.5000000000145173),(-518.00000000000045,7.4999999999780238),(-517.99999999999989,-5.0000000000218412),(337.00000000000023,-4.9999999999858904)));
#58=IFCINDEXEDPOLYCURVE(#57,$,.F.);
#59=IFCARBITRARYCLOSEDPROFILEDEF(.AREA.,'Wall-Ext_102Bwk-75Ins-100LBlk-12P',#58);
#60=IFCCARTESIANPOINT((518.,-140.,-0.));
#61=IFCAXIS2PLACEMENT3D(#60,$,$);
#62=IFCEXTRUDEDAREASOLID(#59,#61,#49,1000.0000000000001);
#63=IFCSIUNIT(*,.PLANEANGLEUNIT.,$,.RADIAN.);
#64=IFCDIMENSIONALEXPONENTS(0,0,0,0,0,0,0);
#65=IFCMEASUREWITHUNIT(IFCPLANEANGLEMEASURE(0.017453292519943278),#63);
#66=IFCCONVERSIONBASEDUNIT(#64,.PLANEANGLEUNIT.,'DEGREE',#65);
#67=IFCCARTESIANPOINTLIST2D(((-483.75,-50.000000000000114),(483.74999999999972,-50.000000000000433),(483.74999999999989,49.999999999999574),(-483.75,49.999999999999893),(-483.75,-50.000000000000114)));
#68=IFCINDEXEDPOLYCURVE(#67,$,.F.);
#69=IFCARBITRARYCLOSEDPROFILEDEF(.AREA.,'Wall-Ext_102Bwk-75Ins-100LBlk-12P',#68);
#70=IFCCARTESIANPOINT((483.75000000000006,-82.499999999999787,-0.));
#71=IFCAXIS2PLACEMENT3D(#70,$,$);
#72=IFCEXTRUDEDAREASOLID(#69,#71,#49,1000.0000000000001);
#73=IFCCARTESIANPOINTLIST2D(((-521.25,-37.499999999999993),(521.25000000000011,-37.499999999999737),(521.25,37.500000000000533),(-521.25,37.500000000000284),(-521.25,-37.499999999999993)));
#74=IFCINDEXEDPOLYCURVE(#73,$,.F.);
#75=IFCARBITRARYCLOSEDPROFILEDEF(.AREA.,'Wall-Ext_102Bwk-75Ins-100LBlk-12P',#74);
#76=IFCCARTESIANPOINT((521.25000000000011,5.,-0.));
#77=IFCAXIS2PLACEMENT3D(#76,$,$);
#78=IFCEXTRUDEDAREASOLID(#75,#77,#49,1000.0000000000001);
#79=IFCCARTESIANPOINTLIST2D(((-51.25000000000005,-572.50000000000011),(51.249999999999929,-572.50000000000011),(51.25000000000005,572.49999999999989),(-51.249999999999929,572.5),(-51.25000000000005,-572.50000000000011)));
#80=IFCINDEXEDPOLYCURVE(#79,$,.F.);
#81=IFCARBITRARYCLOSEDPROFILEDEF(.AREA.,'Wall-Ext_102Bwk-75Ins-100LBlk-12P',#80);
#82=IFCCARTESIANPOINT((572.50000000000023,93.750000000000341,-0.));
#83=IFCDIRECTION((0.,-1.,0.));
#84=IFCAXIS2PLACEMENT3D(#82,#49,#83);
#85=IFCEXTRUDEDAREASOLID(#81,#84,#49,1000.0000000000001);
#86=IFCCOLOURRGB($,0.97647058823529409,0.97647058823529409,0.97647058823529409);
#87=IFCSURFACESTYLERENDERING(#86,0.,$,$,$,$,IFCNORMALISEDRATIOMEASURE(0.5),IFCSPECULAREXPONENT(128.),.NOTDEFINED.);
#88=IFCSURFACESTYLE('Plaster',.BOTH.,(#87));
#89=IFCSTYLEDITEM(#62,(#88),$);
#90=IFCCOLOURRGB($,0.70980392156862748,0.70980392156862748,0.70980392156862748);
#91=IFCSURFACESTYLERENDERING(#90,0.,$,$,$,$,IFCNORMALISEDRATIOMEASURE(0.5),IFCSPECULAREXPONENT(64.),.NOTDEFINED.);
#92=IFCSURFACESTYLE('Concrete Masonry Units _Low Density',.BOTH.,(#91));
#93=IFCSTYLEDITEM(#72,(#92),$);
#94=IFCCOLOURRGB($,0.49803921568627452,0.49803921568627452,0.49803921568627452);
#95=IFCSURFACESTYLERENDERING(#94,0.,$,$,$,$,IFCNORMALISEDRATIOMEASURE(0.5),IFCSPECULAREXPONENT(64.),.NOTDEFINED.);
#96=IFCSURFACESTYLE('Fiberglass Batt',.BOTH.,(#95));
#97=IFCSTYLEDITEM(#78,(#96),$);
#98=IFCCOLOURRGB($,0.66666666666666663,0.39215686274509803,0.41176470588235292);
#99=IFCSURFACESTYLERENDERING(#98,0.,$,$,$,$,IFCNORMALISEDRATIOMEASURE(0.5),IFCSPECULAREXPONENT(128.),.NOTDEFINED.);
#100=IFCSURFACESTYLE('Brick, Common',.BOTH.,(#99));
#101=IFCSTYLEDITEM(#85,(#100),$);
#102=IFCSHAPEREPRESENTATION(#15,'Body','SweptSolid',(#62,#72,#78,#85));
#103=IFCSHAPEREPRESENTATION(#15,'Body','SweptSolid',(#85));
#104=IFCSHAPEASPECT((#103),'Brick, Common',$,.U.,#56);
#105=IFCSHAPEREPRESENTATION(#15,'Body','SweptSolid',(#78));
#106=IFCSHAPEASPECT((#105),'Fiberglass Batt',$,.U.,#56);
#107=IFCSHAPEREPRESENTATION(#15,'Body','SweptSolid',(#72));
#108=IFCSHAPEASPECT((#107),'Concrete Masonry Units _Low Density',$,.U.,#56);
#109=IFCSHAPEREPRESENTATION(#15,'Body','SweptSolid',(#62));
#110=IFCSHAPEASPECT((#109),'Plaster',$,.U.,#56);
#111=IFCWALL('39AjodxTj1nv21jRW3L26R',#6,'Basic Wall:Wall-Ext_102Bwk-75Ins-100LBlk-12P:318945',$,$,#52,#56,'318945',.NOTDEFINED.);
#112=IFCMATERIAL('Brick, Common',$,'Masonry');
#113=IFCMATERIAL('Fiberglass Batt',$,'Generic');
#114=IFCMATERIAL('Concrete Masonry Units _Low Density',$,'Masonry');
#115=IFCMATERIAL('Plaster',$,'Generic');
#116=IFCMATERIALCONSTITUENT('Brick, Common',$,#112,0.35344827586206895,'Masonry');
#117=IFCQUANTITYLENGTH('Width',$,$,102.5,$);
#118=IFCMATERIALCONSTITUENT('Fiberglass Batt',$,#113,0.25862068965517243,'Generic');
#119=IFCQUANTITYLENGTH('Width',$,$,75.,$);
#120=IFCMATERIALCONSTITUENT('Concrete Masonry Units _Low Density',$,#114,0.34482758620689657,'Masonry');
#121=IFCQUANTITYLENGTH('Width',$,$,100.,$);
#122=IFCMATERIALCONSTITUENT('Plaster',$,#115,0.043103448275862072,'Generic');
#123=IFCQUANTITYLENGTH('Width',$,$,12.5,$);
#124=IFCMATERIALCONSTITUENTSET('Basic Wall:Wall-Ext_102Bwk-75Ins-100LBlk-12P',$,(#116,#118,#120,#122));
#125=IFCPHYSICALCOMPLEXQUANTITY('Brick, Common',$,(#117),'Layer',$,$);
#126=IFCPHYSICALCOMPLEXQUANTITY('Fiberglass Batt',$,(#119),'Layer',$,$);
#127=IFCPHYSICALCOMPLEXQUANTITY('Concrete Masonry Units _Low Density',$,(#121),'Layer',$,$);
#128=IFCPHYSICALCOMPLEXQUANTITY('Plaster',$,(#123),'Layer',$,$);
#129=IFCQUANTITYLENGTH('Width',$,$,290.,$);
#130=IFCQUANTITYLENGTH('Height',$,$,999.99999999999795,$);
#131=IFCQUANTITYLENGTH('Length',$,$,1000.0000000000001,$);
#132=IFCQUANTITYVOLUME('GrossVolume',$,$,0.33205000000000001,$);
#133=IFCQUANTITYAREA('GrossSideArea',$,$,1.145,$);
#134=IFCQUANTITYAREA('NetSideArea',$,$,1.1450000000000002,$);
#135=IFCQUANTITYVOLUME('NetVolume',$,$,0.33205000000000012,$);
#136=IFCELEMENTQUANTITY('32QSwIGOWoJZl0ztZuEzGk',#6,'Qto_WallBaseQuantities',$,$,(#125,#126,#127,#128,#129,#130,#131,#132,#133,#134,#135));
#137=IFCRELDEFINESBYPROPERTIES('3huzW2W0t0P32pNCEfNOW2',#6,$,$,(#111),#136);
#138=IFCWALLTYPE('2ru7YPT4T9MuTpOS4FRzxX',#6,'Basic Wall:Wall-Ext_102Bwk-75Ins-100LBlk-12P',$,$,(#158),$,'45419',$,.STANDARD.);
#139=IFCPROPERTYSINGLEVALUE('Reference',$,IFCIDENTIFIER('Wall-Ext_102Bwk-75Ins-100LBlk-12P'),$);
#140=IFCPROPERTYSET('3c9BFQ7cwIvH_v6K$bwDWB',#6,'Pset_EnvironmentalImpactIndicators',$,(#139));
#141=IFCPROPERTYSINGLEVALUE('Reference',$,IFCLABEL('Wall-Ext_102Bwk-75Ins-100LBlk-12P'),$);
#142=IFCPROPERTYSET('2BBfgEhTDAmiE5jjrJohtn',#6,'Pset_ReinforcementBarPitchOfWall',$,(#141));
#143=IFCPROPERTYSINGLEVALUE('IsExternal',$,IFCBOOLEAN(.T.),$);
#144=IFCPROPERTYSINGLEVALUE('LoadBearing',$,IFCBOOLEAN(.F.),$);
#145=IFCPROPERTYSINGLEVALUE('ExtendToStructure',$,IFCBOOLEAN(.F.),$);
#146=IFCPROPERTYSET('2ZJ$67yqegxu0KwUMVDiFN',#6,'Pset_WallCommon',$,(#139,#143,#144,#145));
#147=IFCRELDEFINESBYPROPERTIES('0FjQXyrxSnYdj7f8xDVHWG',#6,$,$,(#111),#140);
#148=IFCRELDEFINESBYPROPERTIES('3gHYqXReJKzCQZFSi5LFwY',#6,$,$,(#111),#142);
#149=IFCRELDEFINESBYPROPERTIES('3IDSsQzGTp5fIgZ2YwA8fb',#6,$,$,(#111),#146);
#150=IFCSIUNIT(*,.MASSUNIT.,.KILO.,.GRAM.);
#151=IFCDERIVEDUNITELEMENT(#150,1);
#152=IFCSIUNIT(*,.THERMODYNAMICTEMPERATUREUNIT.,$,.KELVIN.);
#153=IFCDERIVEDUNITELEMENT(#152,-1);
#154=IFCSIUNIT(*,.TIMEUNIT.,$,.SECOND.);
#155=IFCDERIVEDUNITELEMENT(#154,-3);
#156=IFCDERIVEDUNIT((#151,#153,#155),.THERMALTRANSMITTANCEUNIT.,$);
#157=IFCPROPERTYSINGLEVALUE('ThermalTransmittance',$,IFCTHERMALTRANSMITTANCEMEASURE(0.23592605993668123),$);
#158=IFCPROPERTYSET('3orq6BN_LwRCX23Dley2E6',#6,'Pset_WallCommon',$,(#157));
#159=IFCCARTESIANPOINT((3337.8916811291706,1801.8090907879171,0.));
#160=IFCAXIS2PLACEMENT3D(#159,$,$);
#161=IFCLOCALPLACEMENT(#40,#160);
#162=IFCCARTESIANPOINTLIST3D(((-2.7886752683765873E-014,0.,-2.1657342585967854E-012),(1354.9999999999995,2.7071678232459818E-013,-2.1657342585967854E-012)));
#163=IFCINDEXEDPOLYCURVE(#162,$,.F.);
#164=IFCSHAPEREPRESENTATION(#14,'Axis','Curve3D',(#163));
#165=IFCPRODUCTDEFINITIONSHAPE($,$,(#164,#194));
#166=IFCCARTESIANPOINTLIST2D(((-6.2500000000012861,-677.49999999999977),(6.2499999999988498,-677.49999999999977),(6.2500000000012861,677.49999999999977),(-6.2499999999988498,677.49999999999977),(-6.2500000000012861,-677.49999999999977)));
#167=IFCINDEXEDPOLYCURVE(#166,$,.F.);
#168=IFCARBITRARYCLOSEDPROFILEDEF(.AREA.,'Wall-Ext_102Bwk-75Ins-100LBlk-12P',#167);
#169=IFCCARTESIANPOINT((677.5,-138.74999999999986,-0.));
#170=IFCAXIS2PLACEMENT3D(#169,#49,#50);
#171=IFCEXTRUDEDAREASOLID(#168,#170,#49,1000.0000000000001);
#172=IFCCARTESIANPOINTLIST2D(((-683.74999999999977,-50.000000000000142),(683.74999999999955,-50.000000000000142),(683.74999999999932,49.999999999999865),(-683.75000000000011,49.999999999999865),(-683.74999999999977,-50.000000000000142)));
#173=IFCINDEXEDPOLYCURVE(#172,$,.F.);
#174=IFCARBITRARYCLOSEDPROFILEDEF(.AREA.,'Wall-Ext_102Bwk-75Ins-100LBlk-12P',#173);
#175=IFCCARTESIANPOINT((671.25000000000023,-82.499999999999659,-0.));
#176=IFCAXIS2PLACEMENT3D(#175,$,$);
#177=IFCEXTRUDEDAREASOLID(#174,#176,#49,1000.0000000000001);
#178=IFCCARTESIANPOINTLIST2D(((-733.74999999999932,-37.500000000000135),(733.75000000000011,-37.500000000000135),(733.75000000000034,37.499999999999865),(-733.74999999999955,37.499999999999865),(-733.74999999999932,-37.500000000000135)));
#179=IFCINDEXEDPOLYCURVE(#178,$,.F.);
#180=IFCARBITRARYCLOSEDPROFILEDEF(.AREA.,'Wall-Ext_102Bwk-75Ins-100LBlk-12P',#179);
#181=IFCCARTESIANPOINT((621.24999999999955,5.,-0.));
#182=IFCAXIS2PLACEMENT3D(#181,$,$);
#183=IFCEXTRUDEDAREASOLID(#180,#182,#49,1000.0000000000001);
#184=IFCCARTESIANPOINTLIST2D(((-51.249999999997264,-771.24999999999977),(51.250000000002714,-771.24999999999977),(51.249999999997264,771.25000000000034),(-51.250000000002714,771.24999999999977),(-51.249999999997264,-771.24999999999977)));
#185=IFCINDEXEDPOLYCURVE(#184,$,.F.);
#186=IFCARBITRARYCLOSEDPROFILEDEF(.AREA.,'Wall-Ext_102Bwk-75Ins-100LBlk-12P',#185);
#187=IFCCARTESIANPOINT((583.74999999999977,93.750000000000071,-0.));
#188=IFCAXIS2PLACEMENT3D(#187,#49,#83);
#189=IFCEXTRUDEDAREASOLID(#186,#188,#49,1000.0000000000001);
#190=IFCSTYLEDITEM(#171,(#88),$);
#191=IFCSTYLEDITEM(#177,(#92),$);
#192=IFCSTYLEDITEM(#183,(#96),$);
#193=IFCSTYLEDITEM(#189,(#100),$);
#194=IFCSHAPEREPRESENTATION(#15,'Body','SweptSolid',(#171,#177,#183,#189));
#195=IFCSHAPEREPRESENTATION(#15,'Body','SweptSolid',(#189));
#196=IFCSHAPEASPECT((#195),'Brick, Common',$,.U.,#165);
#197=IFCSHAPEREPRESENTATION(#15,'Body','SweptSolid',(#183));
#198=IFCSHAPEASPECT((#197),'Fiberglass Batt',$,.U.,#165);
#199=IFCSHAPEREPRESENTATION(#15,'Body','SweptSolid',(#177));
#200=IFCSHAPEASPECT((#199),'Concrete Masonry Units _Low Density',$,.U.,#165);
#201=IFCSHAPEREPRESENTATION(#15,'Body','SweptSolid',(#171));
#202=IFCSHAPEASPECT((#201),'Plaster',$,.U.,#165);
#203=IFCWALL('39AjodxTj1nv21jRW3L29y',#6,'Basic Wall:Wall-Ext_102Bwk-75Ins-100LBlk-12P:318982',$,$,#161,#165,'318982',.NOTDEFINED.);
#204=IFCQUANTITYLENGTH('Height',$,$,999.99999999999795,$);
#205=IFCQUANTITYLENGTH('Length',$,$,1500.,$);
#206=IFCQUANTITYVOLUME('GrossVolume',$,$,0.39295000000000002,$);
#207=IFCQUANTITYAREA('GrossSideArea',$,$,1.355,$);
#208=IFCQUANTITYAREA('NetSideArea',$,$,1.3550000000000004,$);
#209=IFCQUANTITYVOLUME('NetVolume',$,$,0.39295000000000024,$);
#210=IFCELEMENTQUANTITY('1n9J8CXadag_MV9osWW9AH',#6,'Qto_WallBaseQuantities',$,$,(#125,#126,#127,#128,#129,#204,#205,#206,#207,#208,#209));
#211=IFCRELDEFINESBYPROPERTIES('0GD1epEjYpXDTybT56alnb',#6,$,$,(#203),#210);
#212=IFCPROPERTYSET('1ZvOJQ2hxO2jBzoaT7UgQO',#6,'Pset_EnvironmentalImpactIndicators',$,(#139));
#213=IFCPROPERTYSINGLEVALUE('Reference',$,IFCLABEL('Wall-Ext_102Bwk-75Ins-100LBlk-12P'),$);
#214=IFCPROPERTYSET('2JF4rx9NXp0jiQfnWkZUyg',#6,'Pset_ReinforcementBarPitchOfWall',$,(#213));
#215=IFCPROPERTYSET('35ObJOoG4eaxvHogM8l31h',#6,'Pset_WallCommon',$,(#139,#143,#144,#145));
#216=IFCRELDEFINESBYPROPERTIES('3x77dGpth4AxL4mVpG0Tr2',#6,$,$,(#203),#212);
#217=IFCRELDEFINESBYPROPERTIES('3pJbdp8jZLHBsewlgbsKoa',#6,$,$,(#203),#214);
#218=IFCRELDEFINESBYPROPERTIES('0FNbEuhzGIavH_QPqvjCVt',#6,$,$,(#203),#215);
#219=IFCCARTESIANPOINT((3062.9644318948122,2252.6103366148382,0.));
#220=IFCAXIS2PLACEMENT3D(#219,#49,#83);
#221=IFCLOCALPLACEMENT(#36,#220);
#222=IFCCARTESIANPOINTLIST3D(((0.,2.4649886285131266E-013,0.),(4100.0000000000009,1.9892376193640306E-013,0.)));
#223=IFCINDEXEDPOLYCURVE(#222,$,.F.);
#224=IFCSHAPEREPRESENTATION(#14,'Axis','Curve3D',(#223));
#225=IFCPRODUCTDEFINITIONSHAPE($,$,(#224,#254));
#226=IFCCARTESIANPOINTLIST2D(((-6.2500000000034523,-2050.),(6.2499999999964135,-2050.),(6.2500000000029106,2050.),(-6.2499999999969544,2050.),(-6.2500000000034523,-2050.)));
#227=IFCINDEXEDPOLYCURVE(#226,$,.F.);
#228=IFCARBITRARYCLOSEDPROFILEDEF(.AREA.,'Wall-Ext_102Bwk-75Ins-100LBlk-12P',#227);
#229=IFCCARTESIANPOINT((2050.,-138.74999999999963,0.));
#230=IFCAXIS2PLACEMENT3D(#229,#49,#50);
#231=IFCEXTRUDEDAREASOLID(#228,#230,#49,2000.0000000000002);
#232=IFCCARTESIANPOINTLIST2D(((-2050.,-50.),(2050.,-50.),(2050.0000000000005,50.),(-2050.,50.),(-2050.,-50.)));
#233=IFCINDEXEDPOLYCURVE(#232,$,.F.);
#234=IFCARBITRARYCLOSEDPROFILEDEF(.AREA.,'Wall-Ext_102Bwk-75Ins-100LBlk-12P',#233);
#235=IFCCARTESIANPOINT((2050.,-82.499999999999972,0.));
#236=IFCAXIS2PLACEMENT3D(#235,$,$);
#237=IFCEXTRUDEDAREASOLID(#234,#236,#49,2000.0000000000002);
#238=IFCCARTESIANPOINTLIST2D(((-2050.,-37.500000000000135),(2050.,-37.500000000000135),(2050.,37.500000000000135),(-2050.,37.500000000000135),(-2050.,-37.500000000000135)));
#239=IFCINDEXEDPOLYCURVE(#238,$,.F.);
#240=IFCARBITRARYCLOSEDPROFILEDEF(.AREA.,'Wall-Ext_102Bwk-75Ins-100LBlk-12P',#239);
#241=IFCCARTESIANPOINT((2050.,5.,0.));
#242=IFCAXIS2PLACEMENT3D(#241,$,$);
#243=IFCEXTRUDEDAREASOLID(#240,#242,#49,2000.0000000000002);
#244=IFCCARTESIANPOINTLIST2D(((-51.249999999997556,-2050.0000000000005),(51.250000000002423,-2050.),(51.249999999998096,2050.),(-51.250000000001883,2050.),(-51.249999999997556,-2050.0000000000005)));
#245=IFCINDEXEDPOLYCURVE(#244,$,.F.);
#246=IFCARBITRARYCLOSEDPROFILEDEF(.AREA.,'Wall-Ext_102Bwk-75Ins-100LBlk-12P',#245);
#247=IFCCARTESIANPOINT((2050.,93.750000000000568,0.));
#248=IFCAXIS2PLACEMENT3D(#247,#49,#83);
#249=IFCEXTRUDEDAREASOLID(#246,#248,#49,2000.0000000000002);
#250=IFCSTYLEDITEM(#231,(#88),$);
#251=IFCSTYLEDITEM(#237,(#92),$);
#252=IFCSTYLEDITEM(#243,(#96),$);
#253=IFCSTYLEDITEM(#249,(#100),$);
#254=IFCSHAPEREPRESENTATION(#15,'Body','SweptSolid',(#231,#237,#243,#249));
#255=IFCSHAPEREPRESENTATION(#15,'Body','SweptSolid',(#249));
#256=IFCSHAPEASPECT((#255),'Brick, Common',$,.U.,#225);
#257=IFCSHAPEREPRESENTATION(#15,'Body','SweptSolid',(#243));
#258=IFCSHAPEASPECT((#257),'Fiberglass Batt',$,.U.,#225);
#259=IFCSHAPEREPRESENTATION(#15,'Body','SweptSolid',(#237));
#260=IFCSHAPEASPECT((#259),'Concrete Masonry Units _Low Density',$,.U.,#225);
#261=IFCSHAPEREPRESENTATION(#15,'Body','SweptSolid',(#231));
#262=IFCSHAPEASPECT((#261),'Plaster',$,.U.,#225);
#263=IFCWALL('39AjodxTj1nv21jRW3L2CN',#6,'Basic Wall:Wall-Ext_102Bwk-75Ins-100LBlk-12P:319341',$,$,#221,#225,'319341',.NOTDEFINED.);
#264=IFCQUANTITYLENGTH('Height',$,$,2000.0000000000002,$);
#265=IFCQUANTITYLENGTH('Length',$,$,4100.,$);
#266=IFCQUANTITYVOLUME('GrossVolume',$,$,2.3780000000000006,$);
#267=IFCQUANTITYAREA('GrossSideArea',$,$,8.2000000000000011,$);
#268=IFCQUANTITYAREA('NetSideArea',$,$,8.2000000000000011,$);
#269=IFCQUANTITYVOLUME('NetVolume',$,$,2.3780000000000014,$);
#270=IFCELEMENTQUANTITY('0QJKRBsqg$ybL60NGmR$Y0',#6,'Qto_WallBaseQuantities',$,$,(#125,#126,#127,#128,#129,#264,#265,#266,#267,#268,#269));
#271=IFCRELDEFINESBYPROPERTIES('0Zkgo7FdqDkHEidVOfcntz',#6,$,$,(#263),#270);
#272=IFCPROPERTYSET('2MOGzUv$gUkTAqw6r8HODP',#6,'Pset_EnvironmentalImpactIndicators',$,(#139));
#273=IFCPROPERTYSINGLEVALUE('Reference',$,IFCLABEL('Wall-Ext_102Bwk-75Ins-100LBlk-12P'),$);
#274=IFCPROPERTYSET('3fxtQ2cWT1YxdKJQPg9Bry',#6,'Pset_ReinforcementBarPitchOfWall',$,(#273));
#275=IFCPROPERTYSET('0PPlJBsaykvuMpGyW5PUV8',#6,'Pset_WallCommon',$,(#139,#143,#144,#145));
#276=IFCRELDEFINESBYPROPERTIES('24PJB9k43_PPu4TeVBlQ$e',#6,$,$,(#263),#272);
#277=IFCRELDEFINESBYPROPERTIES('2D0$_kOmQpr$D5GTNcWO31',#6,$,$,(#263),#274);
#278=IFCRELDEFINESBYPROPERTIES('2RxrXutdIW45PSohBuOvEE',#6,$,$,(#263),#275);
#279=IFCPROPERTYSINGLEVALUE('Reference',$,IFCIDENTIFIER('Circle Head - Project Datum'),$);
#280=IFCPROPERTYSINGLEVALUE('AboveGround',$,IFCLOGICAL(.U.),$);
#281=IFCPROPERTYSET('2QFFSloDKLdASEirlNrsWG',#6,'Pset_BuildingStoreyCommon',$,(#279,#280));
#282=IFCRELDEFINESBYPROPERTIES('24vWbHxUvnwTMhwrnGQFQP',#6,$,$,(#25),#281);
#283=IFCPROPERTYSET('2y6jqut2mGsxPM5c1zUPr2',#6,'Pset_BuildingStoreyCommon',$,(#279,#280));
#284=IFCRELDEFINESBYPROPERTIES('03h9WtlPXy$ENv9AiS5UZC',#6,$,$,(#29),#283);
#285=IFCPROPERTYSET('0OvnB0dbVy1oFhAL_RMCLo',#6,'Pset_BuildingStoreyCommon',$,(#279,#280));
#286=IFCRELDEFINESBYPROPERTIES('0PwUOjySl2ZlBinVcT1FpK',#6,$,$,(#33),#285);
#287=IFCPROPERTYSET('3Lt_9B9qN9ozPE7aJgX9B5',#6,'Pset_BuildingStoreyCommon',$,(#279,#280));
#288=IFCRELDEFINESBYPROPERTIES('1nCXdPGHF5RhJ1iW6uEvIv',#6,$,$,(#37),#287);
#289=IFCRELCONTAINEDINSPATIALSTRUCTURE('39AjodxTj1nv21jRa3L2If',#6,$,$,(#263),#37);
#290=IFCPROPERTYSET('32ZnHpnTmIKOcoeDghhI3x',#6,'Pset_BuildingStoreyCommon',$,(#279,#280));
#291=IFCRELDEFINESBYPROPERTIES('1PkoB17NzgNCoOTBhVybqq',#6,$,$,(#41),#290);
#292=IFCRELCONTAINEDINSPATIALSTRUCTURE('39AjodxTj1nv21jRa3L2Rp',#6,$,$,(#111,#203),#41);
#293=IFCRELAGGREGATES('3IQDSM6OwJCz4IH$i8Hc_m',#6,$,$,#18,(#44));
#294=IFCRELAGGREGATES('1TK2fiSS$Bge5wHnl6y_xu',#6,$,$,#44,(#22));
#295=IFCRELAGGREGATES('2$1LAsj$T3CPRLiPj39tWH',#6,$,$,#22,(#25,#29,#33,#37,#41));
#296=IFCPROPERTYSINGLEVALUE('NumberOfStoreys',$,IFCINTEGER(5),$);
#297=IFCPROPERTYSINGLEVALUE('IsLandmarked',$,IFCLOGICAL(.U.),$);
#298=IFCPROPERTYSET('0t2$_TtNpdzbZiZvd6MwiD',#6,'Pset_BuildingCommon',$,(#45,#296,#297));
#299=IFCRELDEFINESBYPROPERTIES('0hXoqVOD9ipHuhuDgWNySJ',#6,$,$,(#22),#298);
#300=IFCRELASSOCIATESMATERIAL('2Kk4vIya2zsAVqOO_6ukuN',#6,$,$,(#111,#138,#203,#263),#124);
#301=IFCRELDEFINESBYTYPE('0gcPovOn7QcR6iCsNwgUL8',#6,$,$,(#111,#203,#263),#138);
#302=IFCPRESENTATIONLAYERASSIGNMENT('A-WALL-____-OTLN',$,(#55,#102,#103,#105,#107,#109,#164,#194,#195,#197,#199,#201,#224,#254,#255,#257,#259,#261),$);
#303=IFCUNITASSIGNMENT((#7,#8,#9,#66,#156));
ENDSEC;

END-ISO-10303-21;